<?xml version="1.0" standalone="no"?>
<!DOCTYPE svg PUBLIC "-//W3C//DTD SVG 20010904//EN"
 "http://www.w3.org/TR/2001/REC-SVG-20010904/DTD/svg10.dtd">
<svg version="1.0" xmlns="http://www.w3.org/2000/svg"
 width="512.000000pt" height="512.000000pt" viewBox="0 0 512.000000 512.000000"
 preserveAspectRatio="xMidYMid meet">

<g transform="translate(0.000000,512.000000) scale(0.100000,-0.100000)"
fill="#000000" stroke="none">
<path d="M2137 3370 c-61 -16 -110 -45 -154 -92 -57 -63 -78 -130 -78 -250 1
-90 3 -101 35 -164 64 -125 156 -169 334 -162 79 3 110 9 143 26 110 57 162
141 170 274 11 168 -40 276 -160 337 -58 30 -76 34 -159 37 -51 2 -110 -1
-131 -6z m180 -160 c51 -31 67 -72 67 -170 0 -148 -42 -196 -166 -191 -15 1
-43 15 -62 32 -42 36 -62 113 -52 197 12 99 61 152 141 152 22 0 54 -9 72 -20z"/>
<path d="M1170 3368 c0 -2 56 -149 123 -328 l123 -325 113 0 113 0 119 320
c65 176 119 323 119 328 0 4 -45 7 -99 7 l-99 0 -32 -102 c-95 -308 -114 -368
-119 -368 -3 0 -21 48 -39 108 -18 59 -51 164 -73 235 l-40 127 -105 0 c-57 0
-104 -1 -104 -2z"/>
<path d="M2630 3290 l0 -80 105 0 105 0 0 -250 0 -250 105 0 105 0 0 250 0
250 105 0 105 0 0 80 0 80 -315 0 -315 0 0 -80z"/>
<path d="M3350 3040 l0 -330 280 0 280 0 0 70 0 70 -175 0 -175 0 0 70 0 70
160 0 160 0 0 65 0 65 -160 0 -160 0 0 55 0 55 170 0 170 0 0 70 0 70 -275 0
-275 0 0 -330z"/>
<path d="M1985 2533 c24 -48 136 -306 150 -344 33 -92 588 -1348 594 -1345 3
2 47 92 96 200 l90 195 247 -247 248 -247 190 190 190 190 -246 246 -246 246
201 93 c111 52 198 97 193 101 -4 4 -182 83 -397 177 -772 336 -1292 561
-1308 568 -15 5 -15 3 -2 -23z"/>
</g>
</svg>
